HIERARCHY
ROOT Hips
{
	OFFSET 0.000000 0.000000 0.000000
	CHANNELS 6 Xposition Yposition Zposition Zrotation Yrotation Xrotation 
	JOINT LowerBack
	{
		OFFSET 0.000000 0.000000 0.000000
		CHANNELS 3 Zrotation Yrotation Xrotation
		JOINT Spine
		{
			OFFSET 0.028270 2.035590 -0.193380
			CHANNELS 3 Zrotation Yrotation Xrotation
			JOINT Spine1
			{
				OFFSET 0.056720 2.048850 -0.042750
				CHANNELS 3 Zrotation Yrotation Xrotation
				JOINT Neck
				{
					OFFSET 0.000000 0.000000 0.000000
					CHANNELS 3 Zrotation Yrotation Xrotation
					JOINT Neck1
					{
						OFFSET -0.054170 1.746240 0.172020
						CHANNELS 3 Zrotation Yrotation Xrotation
						JOINT Head
						{
							OFFSET 0.104070 1.761360 -0.123970
							CHANNELS 3 Zrotation Yrotation Xrotation
							End Site
							{
								OFFSET 0.000000 0.000000 0.000000
							}
						}
					}
				}
				JOINT LeftShoulder
				{
					OFFSET 0.000000 0.000000 0.000000
					CHANNELS 3 Zrotation Yrotation Xrotation
					JOINT LeftArm
					{
						OFFSET 3.362410 1.200890 -0.311210
						CHANNELS 3 Zrotation Yrotation Xrotation
						JOINT LeftForeArm
						{
							OFFSET 4.983000 -0.000000 -0.000000
							CHANNELS 3 Zrotation Yrotation Xrotation
							JOINT LeftHand
							{
								OFFSET 3.483560 -0.000000 -0.000000
								CHANNELS 3 Zrotation Yrotation Xrotation
								JOINT LeftFingerBase
								{
									OFFSET 0.000000 0.000000 0.000000
									CHANNELS 3 Zrotation Yrotation Xrotation
									JOINT LeftHandIndex1
									{
										OFFSET 0.715260 -0.000000 -0.000000
										CHANNELS 3 Zrotation Yrotation Xrotation
										End Site
										{
											OFFSET 0.000000 0.000000 0.000000
										}
									}
								}
								JOINT LThumb
								{
									OFFSET 0.000000 0.000000 0.000000
									CHANNELS 3 Zrotation Yrotation Xrotation
									End Site
									{
										OFFSET 0.000000 0.000000 0.000000
									}
								}
							}
						}
					}
				}
				JOINT RightShoulder
				{
					OFFSET 0.000000 0.000000 0.000000
					CHANNELS 3 Zrotation Yrotation Xrotation
					JOINT RightArm
					{
						OFFSET -3.136600 1.374050 -0.404650
						CHANNELS 3 Zrotation Yrotation Xrotation
						JOINT RightForeArm
						{
							OFFSET -5.241900 -0.000000 -0.000000
							CHANNELS 3 Zrotation Yrotation Xrotation
							JOINT RightHand
							{
								OFFSET -3.444170 -0.000000 -0.000000
								CHANNELS 3 Zrotation Yrotation Xrotation
								JOINT RightFingerBase
								{
									OFFSET 0.000000 0.000000 0.000000
									CHANNELS 3 Zrotation Yrotation Xrotation
									JOINT RightHandIndex1
									{
										OFFSET -0.622530 -0.000000 -0.000000
										CHANNELS 3 Zrotation Yrotation Xrotation
										End Site
										{
											OFFSET 0.000000 0.000000 0.000000
										}
									}
								}
								JOINT RThumb
								{
									OFFSET 0.000000 0.000000 0.000000
									CHANNELS 3 Zrotation Yrotation Xrotation
									End Site
									{
										OFFSET 0.000000 0.000000 0.000000
									}
								}
							}
						}
					}
				}
			}
		}
	}
}
}
MOTION
Frames: 7
Frame Time: 0.008333
4.339370 15.422085 -1.427435 -168.892919 80.794706 -142.971662 3.267806 -0.527017 13.074743 -0.207779 -0.397668 -0.602458 -5.611701 -0.427831 -1.445396 6.225180 -1.004837 -3.207925 -2.208197 -0.193703 0.762645 0.000000 0.000000 0.000000 -1.489242 8.832365 2.993533 -70.539701 18.159990 22.310552 -1.029767 -58.437429 -0.022674 10.977091 10.919546 1.065424 -0.129452 -0.004460 0.000000 0.000000 0.000000 0.000000 0.000000 0.000000 0.000000 4.065466 2.917282 -1.897366 74.918542 13.429458 9.490121 0.076887 83.746774 -0.095251 -14.835219 7.200666 -1.011352 0.177742 -0.468045 0.000000 0.000000 0.000000 0.000000 0.000000 0.000000 0.000000 
4.499324 15.474370 -1.473370 -169.611394 80.534271 -143.760939 2.917933 -0.438272 13.051875 -0.250967 -0.308521 -0.631670 -5.496406 -0.333240 -1.553349 5.910166 -0.937663 -3.068576 -2.014728 -0.183609 0.807866 0.000000 0.000000 0.000000 -1.769710 8.986780 2.988454 -69.484688 20.137849 23.380668 -1.029428 -59.604497 -0.020345 10.399326 10.483719 0.969437 -0.126714 -0.009425 -0.000000 0.000000 0.000000 0.000000 0.000000 0.000000 0.000000 2.760464 3.122826 -2.075663 75.317123 14.747221 10.504477 0.073314 85.336620 -0.093710 -14.015251 7.369523 -0.978175 0.167871 -0.485316 -0.000000 0.000000 0.000000 0.000000 0.000000 0.000000 0.000000 
4.661152 15.534010 -1.522580 -170.255376 80.224635 -144.472983 2.566574 -0.348283 13.020322 -0.295632 -0.215928 -0.662566 -5.391355 -0.234919 -1.658959 5.645152 -0.870240 -2.934909 -1.834862 -0.174347 0.851289 0.000000 0.000000 0.000000 -1.984769 9.219800 2.958941 -68.360820 22.081535 24.454575 -1.017830 -61.055335 -0.018352 9.916610 9.940522 0.876958 -0.125258 -0.012895 -0.000000 0.000000 0.000000 0.000000 0.000000 0.000000 0.000000 1.563512 3.322450 -2.246459 75.498957 15.923863 11.400610 0.071245 87.019993 -0.092343 -13.308281 7.482416 -0.943794 0.159938 -0.501488 -0.000000 0.000000 0.000000 0.000000 0.000000 0.000000 0.000000 
4.825658 15.600774 -1.575482 -170.823844 79.867070 -145.097856 2.217726 -0.253680 12.963880 -0.342397 -0.116703 -0.697788 -5.301251 -0.129991 -1.757716 5.438139 -0.808344 -2.805081 -1.672500 -0.166216 0.893750 0.000000 0.000000 0.000000 -2.128008 9.510423 2.906466 -67.191459 23.960109 25.514658 -0.996325 -62.697142 -0.016618 9.515629 9.342809 0.791187 -0.124800 -0.015314 -0.000000 0.000000 0.000000 0.000000 0.000000 0.000000 0.000000 0.502040 3.510357 -2.405232 75.460384 16.954590 12.148373 0.069771 88.772949 -0.091059 -12.691573 7.556781 -0.909908 0.153772 -0.516727 -0.000000 0.000000 0.000000 0.000000 0.000000 0.000000 0.000000 
4.993051 15.673905 -1.631928 -171.352804 79.463371 -145.661402 1.866422 -0.151874 12.871153 -0.391083 -0.008625 -0.735683 -5.219485 -0.016190 -1.834898 5.276780 -0.771669 -2.690008 -1.521972 -0.158679 0.932293 0.000000 0.000000 0.000000 -2.160986 9.887120 2.836584 -66.020911 25.672626 26.594232 -0.968672 -64.402505 -0.015162 9.166659 8.755734 0.714720 -0.125272 -0.017129 -0.000000 0.000000 0.000000 0.000000 0.000000 0.000000 0.000000 -0.459983 3.668498 -2.555979 75.250166 17.842411 12.739236 -179.932084 89.452203 179.910080 -12.159530 7.631914 -0.881317 0.149131 -0.531544 -0.000000 0.000000 0.000000 0.000000 0.000000 0.000000 0.000000 
5.163878 15.753027 -1.692429 -171.840578 79.017036 -146.155273 1.521561 -0.041776 12.731588 -0.440932 0.109052 -0.778885 -5.149251 0.106928 -1.891012 5.158906 -0.770928 -2.587435 -1.384620 -0.151866 0.967881 0.000000 0.000000 0.000000 -2.096768 10.310268 2.750729 -64.864357 27.228938 27.670478 -0.935089 -66.127563 -0.013923 8.856739 8.227768 0.649355 -0.126333 -0.018863 -0.000000 0.000000 0.000000 0.000000 0.000000 0.000000 0.000000 -1.317145 3.785362 -2.694560 74.894821 18.585969 13.170647 -179.935410 87.687291 179.911192 -11.686969 7.709042 -0.856519 0.145604 -0.545897 -0.000000 0.000000 0.000000 0.000000 0.000000 0.000000 0.000000 
5.338254 15.837419 -1.757235 -172.298645 78.530439 -146.584653 1.188082 0.076686 12.539975 -0.490529 0.235909 -0.827446 -5.087575 0.238851 -1.922291 5.071712 -0.821593 -2.501983 -1.256962 -0.145474 0.999361 0.000000 0.000000 0.000000 -1.935829 10.770238 2.652085 -63.744768 28.605692 28.746686 -0.896845 -67.822333 -0.012901 8.571049 7.799910 0.596291 -0.127800 -0.020919 -0.000000 0.000000 0.000000 0.000000 0.000000 0.000000 0.000000 -2.096495 3.845165 -2.821777 74.444631 19.188597 13.457999 -179.940710 85.971486 179.912275 -11.265101 7.794143 -0.835617 0.142876 -0.559802 -0.000000 0.000000 0.000000 0.000000 0.000000 0.000000 0.000000 
